<svg id="Face2" xmlns="http://www.w3.org/2000/svg" viewBox="0 0 400.53 491.72"><path d="M295.13,486.21c2.49-6.63,4.77-12.93,7.23-19.17,3.22-8.21,7.32-16.16,9.61-24.62,1.54-5.64.59-12,.73-18,0-1.56-.05-3.12-.06-4.68-.05-4.63-2.56-7.48-7.23-7.46a71.87,71.87,0,0,1-30.11-6.81c-5.15-2.34-8.52-6.79-11.51-11.37-6.09-9.32-12.33-18.58-17.82-28.25-6.45-11.35-11.88-23.15-11.75-36.74a92,92,0,0,0-1.14-17c-.48-2.64-3.17-4.86-4.78-7.32-6.93-10.5-12.78-21.18-12.33-34.57.22-6.7-.08-13.28,2.25-19.67,1.12-3.08,1.7-6.6,3.6-9.11,2.86-3.78,4.2-8.49,8.21-11.64,4.29-3.39,7.94-7.62,11.72-11.61,1-1,1.22-2.73,2.17-3.8.75-.85,2.3-1,3.08-1.82,3.67-3.92,7.2-8,10.75-12a4,4,0,0,0,.63-1.36c1.28-3.84-1.52-5.74-3.71-8a7.44,7.44,0,0,1-2.21-3.64c-.56-4.22-.73-8.5-1.07-13.06-2.06,0-3.6,0-5.14,0-10.2.2-10.78-3.28-12.52-10.48-.4-1.64-.85-2.36-2.36-2.95-8-3.13-9.62-5.8-9.92-14.32-.07-2-1-4.64-2.45-5.69-4.82-3.5-5.41-9-7.42-13.82a6.16,6.16,0,0,0-4.06-3.85c-6.6-2.65-9.8-4.45-9.45-12.64.19-4.65-.06-9.08,3.67-12.94,1.18-1.23,2.14-3.58,3-5.46.58-1.32,0-3.39-.57-4.94-2.3-6.33-1.27-12.6.45-18.73a68.29,68.29,0,0,1,5.11-13.24,14.32,14.32,0,0,1,5.94-5.7c3.33-1.69,4.7-4.55,5.72-7.53,2.16-6.35,6.72-10.61,12-14.1a35.77,35.77,0,0,1,11.49-5.32c3.93-.92,8.26-.54,12.37-.22A51.41,51.41,0,0,1,269,24.69c2.42.79,4.47,2.88,6.51,4.6,3.58,3,7,6.23,10.53,9.33a2.34,2.34,0,0,0,1.17.57c9,1,14.88,7.23,20.17,13.55,3.05,3.63,4.49,8.62,6.56,13,1.06,2.26,1.92,4.62,2.74,6.63,4.3-1.3,8.32-2.48,12.32-3.74a5.68,5.68,0,0,0,1.9-1.19c4.1-3.57,11.79-4.79,16.32-2.08,2,1.19,3.28,3.49,5.06,5.09A6.58,6.58,0,0,0,355.47,72a46.44,46.44,0,0,0,6.87.65,6.93,6.93,0,0,0,3.05-.8c4.67-2.3,9.25-4.82,14-7a118.25,118.25,0,0,1,11.24-4.45c1-.35,2.28.22,3.44.28,4.42.25,8.93,0,13.24.79A208.76,208.76,0,0,1,429,66.77c6.27,1.89,12.21,4.89,19.1,4,5.26-.69,9.55,2.11,13.93,4.44,2.2,1.17,4.33,2.5,6.61,3.5,8,3.51,15.79,7.44,24,10.22,11.1,3.76,21.46,9.63,33.28,11.49,2.54.4,5.52,2.88,6.78,5.21,1.82,3.35,4.82,5.06,7.45,7.12,9.63,7.55,18.79,15.4,24.36,26.65,2.51,5.06,1.68,9.9-.37,14.72-.31.74-1.44,1.27-2.3,1.61a19.35,19.35,0,0,1-3.26.67c3.88,5.68,8,10.92,11.26,16.68A129.23,129.23,0,0,1,578,191.27a38.59,38.59,0,0,1,2.36,11.84c.49,13.15.84,26.32.68,39.48-.13,10-1.56,19.77-5.55,29.17a30.1,30.1,0,0,0-.76,21.76c3.31,9.17,8.47,17.69,12.93,26.44,3.38,6.63,7.14,13.07,10.29,19.81,1.64,3.51-.45,6.89-2.58,9.56-4,5-9,8.45-15.63,9.57-2.6.43-6,2.44-7,4.64-1.06,2.48.11,6,.58,9,.36,2.23,1.56,4.37,1.66,6.58.27,5.72-1.27,7.68-6.71,9.72-.6.23-1.14.64-.93.53.38,4.56,1,8.7.93,12.82,0,1.62-1.25,3.48-2.44,4.76-2.32,2.51-5.49,4.36-7.38,7.11a19,19,0,0,0-2.71,8.46c-.74,6.78-.1,13.84-1.66,20.39-1.82,7.63-7.45,13.35-14.51,16.58-3.7,1.69-8.42,1.12-12.68,1.63-6.8.82-13.75,1.1-20.37,2.69a53.75,53.75,0,0,0-21.75,11c-3.67,3-6.45,7.26-10.37,9.84-4.12,2.71-6.79,6.29-9.22,10.23-3.24,5.25-6.39,10.57-9.31,16-1.45,2.69-3.05,3.41-6.1,2.8-9.43-1.89-18.93-3.39-28.4-5.08-9.25-1.64-18.49-3.35-27.74-5-8.39-1.49-16.8-2.9-25.19-4.38-8.18-1.45-16.34-3-24.52-4.4-9.47-1.68-18.95-3.3-28.42-5C309.13,488.77,302.69,487.58,295.13,486.21Z" transform="translate(-198.04 -22.22)"/></svg>